<?xml version="1.0" encoding="UTF-8"?>
<svg xmlns="http://www.w3.org/2000/svg" viewBox="53 62 28.4 28">
  <g id="layer1">
    <path id="path1" style="fill:#1575c5;fill-opacity:1;fill-rule:nonzero;stroke:none;stroke-width:0.0352778"
      d="m 79.367275,67.857757 c -0.301378,-0.484364 -1.110826,-0.304447 -2.412929,-0.04727 0.01404,0.01623 0.02674,0.03316 0.04149,0.04833 0.627416,0.323497 0.829416,0.594077 0.994657,0.85725 0.16383,0.263172 0.318453,0.564797 0.334998,1.270353 0.0081,0.01799 0.01612,0.0381 0.0248,0.05821 0.803522,-1.057275 1.318224,-1.706386 1.016987,-2.18687" />
    <path id="path2" style="fill:#1575c5;fill-opacity:1;fill-rule:nonzero;stroke:none;stroke-width:0.0352778"
      d="m 77.988549,78.82703 c 1.527563,-3.970514 0.673876,-7.469717 -0.700581,-9.671756 -1.358618,-2.174875 -4.105029,-4.433006 -8.383165,-4.865159 -3.580977,-0.361597 -7.411085,-0.278341 -10.218844,-0.15875 l 0.06131,0.100542 c 9.536572,1.78047 12.082393,3.073753 14.726815,7.307087 2.663084,4.261203 2.634403,6.995583 0.113418,16.439304 l 0.06149,0.100612 c 1.26612,-2.305473 3.045848,-5.89026 4.339555,-9.25188" />
    <path id="path3" style="fill:#1575c5;fill-opacity:1;fill-rule:nonzero;stroke:none;stroke-width:0.0352778"
      d="m 64.630265,71.494896 c -2.379874,0.739775 -5.105365,1.821039 -7.847789,3.326342 -0.598343,0.328789 -1.20413,0.635 -1.749143,1.011061 l 0.04479,0.0695 c 6.274629,-3.271662 12.236856,-3.911601 13.761632,-1.466498 1.521495,2.432051 -1.661231,7.520165 -7.353054,11.726193 l 0.04477,0.07017 c 0.577956,-0.325508 1.114143,-0.73974 1.675694,-1.128501 2.569634,-1.783856 4.754105,-3.72872 6.460385,-5.54482 3.024787,-3.217687 4.495871,-6.115756 3.446357,-7.795331 -1.04775,-1.678517 -4.267095,-1.575859 -8.483636,-0.268112" />
  </g>
</svg>
